<?xml version="1.0" encoding="UTF-8" standalone="no"?>
<!-- Created with Inkscape (http://www.inkscape.org/) -->

<svg
   xmlns:dc="http://purl.org/dc/elements/1.1/"
   xmlns:cc="http://creativecommons.org/ns#"
   xmlns:rdf="http://www.w3.org/1999/02/22-rdf-syntax-ns#"
   xmlns:svg="http://www.w3.org/2000/svg"
   xmlns="http://www.w3.org/2000/svg"
   xmlns:sodipodi="http://sodipodi.sourceforge.net/DTD/sodipodi-0.dtd"
   xmlns:inkscape="http://www.inkscape.org/namespaces/inkscape"
   id="svg3039"
   version="1.1"
   inkscape:version="0.48.3.1 r9886"
   width="386.17496"
   height="386.17496"
   sodipodi:docname="índice.jpeg">
  <metadata
     id="metadata3045">
    <rdf:RDF>
      <cc:Work
         rdf:about="">
        <dc:format>image/svg+xml</dc:format>
        <dc:type
           rdf:resource="http://purl.org/dc/dcmitype/StillImage" />
        <dc:title></dc:title>
      </cc:Work>
    </rdf:RDF>
  </metadata>
  <defs
     id="defs3043">
    <filter
       inkscape:collect="always"
       id="filter3989"
       color-interpolation-filters="sRGB">
      <feGaussianBlur
         inkscape:collect="always"
         stdDeviation="4.2076076"
         id="feGaussianBlur3991" />
    </filter>
    <filter
       inkscape:collect="always"
       id="filter4019"
       color-interpolation-filters="sRGB">
      <feGaussianBlur
         inkscape:collect="always"
         stdDeviation="5.4549898"
         id="feGaussianBlur4021" />
    </filter>
  </defs>
  <sodipodi:namedview
     pagecolor="#ffffff"
     bordercolor="#666666"
     borderopacity="1"
     objecttolerance="10"
     gridtolerance="10"
     guidetolerance="10"
     inkscape:pageopacity="0"
     inkscape:pageshadow="2"
     inkscape:window-width="1366"
     inkscape:window-height="709"
     id="namedview3041"
     showgrid="false"
     inkscape:object-paths="true"
     inkscape:object-nodes="true"
     fit-margin-top="0"
     fit-margin-left="0"
     fit-margin-right="0"
     fit-margin-bottom="0"
     inkscape:zoom="0.99266914"
     inkscape:cx="179.74603"
     inkscape:cy="195.58408"
     inkscape:window-x="0"
     inkscape:window-y="27"
     inkscape:window-maximized="1"
     inkscape:current-layer="svg3039" />
  <path
     transform="matrix(0.94223499,0,0,0.94223499,267.59915,88.518851)"
     d="m 102.75327,110.97935 a 181.83299,181.83299 0 1 1 -363.66598,0 181.83299,181.83299 0 1 1 363.66598,0 z"
     sodipodi:ry="181.83299"
     sodipodi:rx="181.83299"
     sodipodi:cy="110.97935"
     sodipodi:cx="-79.07972"
     id="path3993"
     style="fill:#ffffff;fill-opacity:1;stroke:#0b0b0b;stroke-width:20;stroke-miterlimit:4;stroke-opacity:1;stroke-dasharray:none;filter:url(#filter4019)"
     sodipodi:type="arc" />
  <path
     sodipodi:type="arc"
     style="fill:#ffffff;fill-opacity:1;stroke:#626262;stroke-width:20;stroke-miterlimit:4;stroke-opacity:1;stroke-dasharray:none"
     id="path3942"
     sodipodi:cx="-79.07972"
     sodipodi:cy="110.97935"
     sodipodi:rx="181.83299"
     sodipodi:ry="181.83299"
     d="m 102.75327,110.97935 a 181.83299,181.83299 0 1 1 -363.66598,0 181.83299,181.83299 0 1 1 363.66598,0 z"
     transform="matrix(0.94223499,0,0,0.94223499,267.59915,86.518851)" />
  <g
     style="stroke:#2b2b2b;stroke-opacity:1;filter:url(#filter3989)"
     transform="translate(202.2609,130.13029)"
     id="g3950">
    <rect
       style="fill:none;stroke:#2b2b2b;stroke-width:12.75782871;stroke-miterlimit:4;stroke-opacity:1;stroke-dasharray:none"
       id="rect3952"
       width="244.55135"
       height="176.20941"
       x="-129.4491"
       y="-155.06189"
       ry="24.660288"
       transform="scale(1,-1)" />
    <path
       style="fill:#ffffff;stroke:#2b2b2b;stroke-width:12;stroke-miterlimit:4;stroke-opacity:1;stroke-dasharray:none"
       d="m -104.78895,155.05824 c -6.84701,0 -13.04022,-2.77408 -17.5,-7.25 L -7.1639525,30.995735 107.96104,147.77699 c -4.46216,4.49452 -10.668136,7.28125 -17.531246,7.28125 l -195.218744,0 z"
       id="path3954"
       inkscape:connector-curvature="0" />
    <path
       id="path3956"
       d="m -104.78895,-21.004265 c -6.84701,0 -13.04022,2.77408 -17.5,7.25 L -7.1639525,103.05824 107.96104,-13.723015 c -4.46216,-4.49452 -10.668136,-7.28125 -17.531246,-7.28125 l -195.218744,0 z"
       style="fill:#ffffff;stroke:#2b2b2b;stroke-width:12;stroke-miterlimit:4;stroke-opacity:1;stroke-dasharray:none"
       inkscape:connector-curvature="0" />
  </g>
  <rect
     style="fill:none;stroke:#626262;stroke-width:12.75782871;stroke-miterlimit:4;stroke-opacity:1;stroke-dasharray:none"
     id="rect3049"
     width="244.55135"
     height="176.20941"
     x="70.811813"
     y="-277.19217"
     ry="24.660288"
     transform="scale(1,-1)" />
  <path
     style="fill:none;stroke:#626262;stroke-width:12;stroke-miterlimit:4;stroke-opacity:1;stroke-dasharray:none"
     d="m 95.471954,277.18853 c -6.84701,0 -13.04022,-2.77408 -17.5,-7.25 l 79.771426,-78.59246 35.35357,33.84246 35.37683,-35.88579 79.74816,80.60454 c -4.46216,4.49452 -10.66813,7.28125 -17.53124,7.28125 z"
     id="rect3819"
     inkscape:connector-curvature="0"
     sodipodi:nodetypes="scccccss" />
  <path
     id="path3921"
     d="m 95.471954,101.12603 c -6.84701,0 -13.04022,2.77408 -17.5,7.25 L 193.09695,225.18853 308.22194,108.40728 c -4.46216,-4.49452 -10.66813,-7.28125 -17.53124,-7.28125 l -195.218746,0 z"
     style="fill:none;stroke:#626262;stroke-width:12;stroke-miterlimit:4;stroke-opacity:1;stroke-dasharray:none"
     inkscape:connector-curvature="0" />
</svg>
