<?xml version="1.0" encoding="UTF-8" standalone="no"?>
<!-- Created with Inkscape (http://www.inkscape.org/) -->

<svg
   xmlns:dc="http://purl.org/dc/elements/1.1/"
   xmlns:cc="http://creativecommons.org/ns#"
   xmlns:rdf="http://www.w3.org/1999/02/22-rdf-syntax-ns#"
   xmlns:svg="http://www.w3.org/2000/svg"
   xmlns="http://www.w3.org/2000/svg"
   xmlns:xlink="http://www.w3.org/1999/xlink"
   xmlns:sodipodi="http://sodipodi.sourceforge.net/DTD/sodipodi-0.dtd"
   xmlns:inkscape="http://www.inkscape.org/namespaces/inkscape"
   id="svg3039"
   version="1.1"
   inkscape:version="0.48.3.1 r9886"
   width="386.17496"
   height="386.17496"
   sodipodi:docname="logoSIGOCA.svg">
  <metadata
     id="metadata3045">
    <rdf:RDF>
      <cc:Work
         rdf:about="">
        <dc:format>image/svg+xml</dc:format>
        <dc:type
           rdf:resource="http://purl.org/dc/dcmitype/StillImage" />
        <dc:title></dc:title>
      </cc:Work>
    </rdf:RDF>
  </metadata>
  <defs
     id="defs3043">
    <linearGradient
       inkscape:collect="always"
       id="linearGradient4033">
      <stop
         style="stop-color:#ffe680;stop-opacity:1;"
         offset="0"
         id="stop4035" />
      <stop
         style="stop-color:#ffe680;stop-opacity:0;"
         offset="1"
         id="stop4037" />
    </linearGradient>
    <filter
       inkscape:collect="always"
       id="filter4019"
       color-interpolation-filters="sRGB">
      <feGaussianBlur
         inkscape:collect="always"
         stdDeviation="5.4549898"
         id="feGaussianBlur4021" />
    </filter>
    <radialGradient
       inkscape:collect="always"
       xlink:href="#linearGradient4033"
       id="radialGradient4039"
       cx="220.06367"
       cy="199.6675"
       fx="220.06367"
       fy="199.6675"
       r="120.38251"
       gradientTransform="matrix(0.64885597,-0.17386043,0.14707871,0.54891239,-47.039392,104.6942)"
       gradientUnits="userSpaceOnUse" />
  </defs>
  <sodipodi:namedview
     pagecolor="#ffffff"
     bordercolor="#666666"
     borderopacity="1"
     objecttolerance="10"
     gridtolerance="10"
     guidetolerance="10"
     inkscape:pageopacity="0"
     inkscape:pageshadow="2"
     inkscape:window-width="1366"
     inkscape:window-height="709"
     id="namedview3041"
     showgrid="false"
     inkscape:object-paths="true"
     inkscape:object-nodes="false"
     fit-margin-top="0"
     fit-margin-left="0"
     fit-margin-right="0"
     fit-margin-bottom="0"
     inkscape:zoom="0.7019231"
     inkscape:cx="201.41782"
     inkscape:cy="51.725968"
     inkscape:window-x="0"
     inkscape:window-y="27"
     inkscape:window-maximized="1"
     inkscape:current-layer="text4051"
     inkscape:snap-nodes="false" />
  <path
     transform="matrix(0.94223499,0,0,0.94223499,267.59915,88.518851)"
     d="m 102.75327,110.97935 a 181.83299,181.83299 0 1 1 -363.66598,0 181.83299,181.83299 0 1 1 363.66598,0 z"
     sodipodi:ry="181.83299"
     sodipodi:rx="181.83299"
     sodipodi:cy="110.97935"
     sodipodi:cx="-79.07972"
     id="path3993"
     style="fill:#ffffff;fill-opacity:1;stroke:#0b0b0b;stroke-width:20;stroke-miterlimit:4;stroke-opacity:1;stroke-dasharray:none;filter:url(#filter4019)"
     sodipodi:type="arc" />
  <path
     sodipodi:type="arc"
     style="fill:#ffffff;fill-opacity:1;stroke:#626262;stroke-width:20;stroke-miterlimit:4;stroke-opacity:1;stroke-dasharray:none"
     id="path3942"
     sodipodi:cx="-79.07972"
     sodipodi:cy="110.97935"
     sodipodi:rx="181.83299"
     sodipodi:ry="181.83299"
     d="m 102.75327,110.97935 a 181.83299,181.83299 0 1 1 -363.66598,0 181.83299,181.83299 0 1 1 363.66598,0 z"
     transform="matrix(0.94223499,0,0,0.94223499,267.59915,86.518851)" />
  <path
     inkscape:connector-curvature="0"
     id="path3205"
     d="m 106.53297,220.52811 c -0.82284,-1.72552 -1.12086,-1.89994 -3.24623,-1.89994 -1.81944,0 -2.41454,0.23416 -2.67418,1.0522 -0.624682,1.96819 -1.658722,2.38343 -4.107962,1.64961 -2.09261,-0.62696 -2.24405,-0.80819 -2.24405,-2.68541 0,-1.5906 -0.34135,-2.26544 -1.62654,-3.21563 l -1.62654,-1.20255 -1.85248,1.09299 -1.85249,1.09299 -1.82265,-1.8805 -1.82265,-1.8805 1.23491,-1.73427 c 1.22131,-1.71517 1.22371,-1.75508 0.2176,-3.62332 -0.87762,-1.62965 -1.29827,-1.88903 -3.06341,-1.88903 -2.32921,0 -2.42256,-0.0912 -2.94538,-2.87816 -0.36483,-1.94471 -0.28748,-2.08902 1.6029,-2.99048 1.74629,-0.83275 1.98623,-1.1906 1.98623,-2.96227 0,-1.73783 -0.26533,-2.15798 -1.92841,-3.0536 -1.06063,-0.57119 -1.92842,-1.13934 -1.92842,-1.26254 0,-0.12321 0.28719,-1.18255 0.63819,-2.3541 0.60872,-2.03173 0.74464,-2.13008 2.94361,-2.13008 2.04427,0 2.41663,-0.20652 3.28723,-1.82313 0.93183,-1.73028 0.93356,-1.91647 0.0341,-3.65583 -0.94724,-1.83178 -0.94688,-1.83354 0.73163,-3.51204 l 1.67934,-1.67935 1.95669,1.05376 c 1.84212,0.99204 2.04529,1.00021 3.46985,0.13961 1.1693,-0.70641 1.5507,-1.40411 1.67835,-3.07022 0.1579,-2.06089 0.27328,-2.1808 2.61376,-2.71638 2.634732,-0.6029 3.106812,-0.36672 3.802452,1.90241 0.30837,1.00587 0.78121,1.23969 2.50689,1.23969 1.72092,0 2.38048,-0.32408 3.45573,-1.69799 1.28483,-1.64172 1.40486,-1.67753 3.62127,-1.08071 2.16973,0.58424 2.2924,0.72737 2.2924,2.67465 0,1.77166 0.25825,2.19645 1.85963,3.05884 1.74996,0.94243 1.96418,0.94742 3.63254,0.0847 0.9751,-0.50423 1.81186,-0.8353 1.85946,-0.73568 0.0476,0.0996 0.79917,0.96941 1.67017,1.93288 l 1.58362,1.75175 -1.1552,1.46859 -1.15519,1.4686 1.2245,2.14467 c 1.07989,1.89139 1.4685,2.14518 3.29066,2.14892 1.38373,0.003 2.06616,0.25446 2.06616,0.76183 0,0.41667 0.14168,1.47042 0.31485,2.34165 0.26696,1.34312 0.0575,1.73545 -1.37744,2.57941 -1.43204,0.84228 -1.69229,1.32755 -1.69229,3.15541 0,1.75931 0.2811,2.33591 1.51518,3.10795 0.83335,0.52134 1.59436,0.9988 1.69112,1.06101 0.0968,0.0622 -0.12844,1.12901 -0.50045,2.37067 -0.63593,2.12256 -0.80025,2.25754 -2.74813,2.25754 -1.77103,0 -2.24372,0.27826 -3.25653,1.91701 -1.15392,1.86709 -1.15909,1.96049 -0.19853,3.5866 l 0.98626,1.66958 -1.74858,1.74857 -1.74858,1.74858 -1.84938,-0.99596 c -1.7238,-0.92833 -1.96649,-0.93539 -3.57415,-0.10405 -1.39323,0.72048 -1.75766,1.28563 -1.89595,2.94016 -0.1582,1.89278 -0.35061,2.09994 -2.53533,2.72955 l -2.36414,0.68133 -0.90602,-1.89996 z m 4.20493,-10.41375 c 4.90497,-2.48554 7.83357,-7.0672 7.94097,-12.42328 0.0829,-4.13319 -0.88749,-7.05987 -3.25956,-9.8311 -5.98031,-6.98665 -16.230782,-7.08154 -22.282642,-0.20628 -4.0796,4.63467 -4.77641,10.43459 -1.92878,16.05413 3.67398,7.25026 12.288452,10.0761 19.530012,6.40653 z m 27.92613,-18.17403 c -0.92691,-2.21843 -1.90109,-2.46837 -3.35577,-0.86096 -1.10604,1.22217 -2.04941,1.37084 -3.56189,0.56139 -0.82299,-0.44045 -0.93141,-0.88929 -0.5854,-2.42343 0.57873,-2.566 0.0202,-3.23622 -2.50882,-3.01046 -1.88386,0.16816 -2.17889,0.0229 -2.65223,-1.30622 -0.46091,-1.2942 -0.33383,-1.65176 0.94429,-2.65713 1.91614,-1.50725 1.86682,-2.50468 -0.17608,-3.56111 -1.25739,-0.65022 -1.65293,-1.23532 -1.65293,-2.44511 0,-1.42568 0.2279,-1.62885 2.20102,-1.96221 2.75379,-0.46525 3.02803,-0.91003 1.90276,-3.08605 -0.85728,-1.6578 -0.84592,-1.79461 0.23916,-2.87969 1.10264,-1.10264 1.20276,-1.1089 3.11927,-0.19498 2.38837,1.13893 2.77497,0.95455 3.24433,-1.54735 0.1996,-1.06397 0.66161,-1.95346 1.02667,-1.97665 0.36506,-0.0232 1.10315,-0.12602 1.64019,-0.22852 0.67673,-0.12918 1.21772,0.3911 1.76255,1.69508 0.90093,2.15622 1.99975,2.37699 3.6445,0.73223 1.00703,-1.00702 1.34718,-1.06722 2.74919,-0.48648 1.31828,0.54605 1.54118,0.897 1.26601,1.99334 -0.7578,3.01934 -0.6343,3.22114 1.99827,3.26528 2.15175,0.0361 2.54574,0.22972 2.98142,1.46524 0.42349,1.20092 0.26717,1.62566 -0.99916,2.71491 -1.74682,1.50256 -1.55182,2.5479 0.71681,3.84256 1.26945,0.72445 1.52563,1.18531 1.30384,2.34553 -0.22483,1.17614 -0.66638,1.50635 -2.38094,1.78052 -2.52501,0.40376 -2.8951,1.11485 -1.7793,3.41873 0.80265,1.65727 0.78152,1.78626 -0.45695,2.78911 -1.27678,1.03386 -1.32318,1.03391 -2.7715,0.003 -1.9219,-1.36852 -2.92713,-0.91631 -3.54783,1.59599 -0.40926,1.65652 -0.78664,2.0748 -1.99794,2.2145 -1.25846,0.14514 -1.6224,-0.13654 -2.31354,-1.79067 z m 4.50067,-6.36774 c 0.98764,-0.60217 2.28839,-1.90292 2.89057,-2.89057 3.91278,-6.41747 -3.89495,-14.26782 -10.30385,-10.36007 -5.05702,3.08346 -5.17174,9.79359 -0.22394,13.09894 2.32136,1.55076 5.24725,1.60888 7.63722,0.1517 z m -27.18365,-14.46398 c -0.50176,-1.58092 -1.80708,-2.53656 -3.02844,-2.21717 -1.1565,0.30243 -2.02696,-1.86024 -1.11556,-2.77164 0.78709,-0.7871 0.7769,-2.74862 -0.0184,-3.54395 -0.8619,-0.86191 -0.18262,-2.35113 1.07243,-2.35113 1.10075,0 2.46917,-1.3055 3.03202,-2.89262 0.42637,-1.20229 2.34685,-1.26566 2.79712,-0.0923 0.25517,0.66496 0.95571,0.82843 2.95157,0.68872 2.6081,-0.18257 2.61717,-0.17717 2.67209,1.58919 0.0604,1.94388 1.03224,3.46189 2.21626,3.46189 1.19417,0 0.90994,2.26759 -0.3247,2.59046 -1.14794,0.3002 -1.83451,1.75 -1.90433,4.02125 -0.0348,1.13354 -0.28623,1.35055 -1.41977,1.22558 -2.71677,-0.2995 -3.5149,-0.16407 -3.98515,0.67619 -0.71269,1.27352 -2.49263,1.04115 -2.9451,-0.38447 z m 5.0571,-3.5919 c 0.82793,-0.55283 1.87315,-2.61782 1.87315,-3.70074 0,-0.48894 -0.67116,-1.511 -1.49147,-2.27124 -3.44392,-3.19172 -8.08697,1.28221 -5.36449,5.16911 0.86437,1.23405 3.66194,1.68483 4.98281,0.80287 z"
     style="fill:#626262;fill-opacity:1" />
  <path
     style="fill:#d4aa00;fill-opacity:1;stroke:none"
     d="m 58.370478,148.03662 47.062822,0 5.99134,-14.44477 49.32565,0 c 6.04613,0 10.91358,4.86746 10.91358,10.91358 l 0,72.65055 c 0,6.04613 -4.86745,10.91358 -10.91358,10.91358 l -102.379812,0 c -6.04613,0 -10.91359,-4.86745 -10.91359,-10.91358 l 0,-58.20578 c 0,-6.04612 4.86746,-10.91358 10.91359,-10.91358 z"
     id="rect3996"
     inkscape:connector-curvature="0"
     sodipodi:nodetypes="sccssssssss" />
  <path
     sodipodi:nodetypes="sccssssssss"
     inkscape:connector-curvature="0"
     id="path4031"
     d="m 58.370478,148.03662 47.062822,0 5.99134,-14.44477 49.32565,0 c 6.04613,0 10.91358,4.86746 10.91358,10.91358 l 0,72.65055 c 0,6.04613 -4.86745,10.91358 -10.91358,10.91358 l -102.379812,0 c -6.04613,0 -10.91359,-4.86745 -10.91359,-10.91358 l 0,-58.20578 c 0,-6.04612 4.86746,-10.91358 10.91359,-10.91358 z"
     style="fill:url(#radialGradient4039);fill-opacity:1;stroke:none" />
  <path
     style="fill:#8c0000;fill-opacity:1;stroke:none"
     d="m 109.0527,147.82425 c -0.70706,0.0113 -1.44157,0.0498 -2.17639,0.0967 l -0.25795,0.61262 -0.32242,0.78994 -0.87056,0 -7.835002,0 c -17.96494,4.15114 -39.46496,16.97225 -48.84783,38.69135 l 0,6.9322 7.10954,23.10197 c 0,0 12.07328,-69.21983 62.808962,-68.96734 -2.67426,-0.89322 -5.94451,-1.31599 -9.60835,-1.25747 z"
     id="rect3209"
     inkscape:connector-curvature="0" />
  <path
     style="fill:#007908;fill-opacity:1;stroke:none"
     d="m 91.641588,137.60329 c -11.26854,0.0357 -22.99483,2.64824 -33.43578,9.14083 0.0538,-5.2e-4 0.10726,0 0.16122,0 l 41.754412,0 c 1.55384,-0.23907 3.11564,-0.42901 4.69133,-0.54813 l 2.86961,-6.9322 c -5.10753,-1.06869 -10.514352,-1.67798 -16.040792,-1.6605 z m 18.587972,2.22475 -2.57943,6.23898 c 10.39569,-0.26807 21.1044,2.35391 31.21103,9.83405 -4.6331,-6.54127 -15.4303,-12.84746 -28.6316,-16.07303 z m -51.862532,9.4955 c -0.80419,0 -1.57699,0.10829 -2.32149,0.29019 l -7.30299,21.08679 0,2.54718 c 4.37231,-3.92471 20.50756,-17.55469 40.51307,-23.92416 l -30.88859,0 z"
     id="path3988"
     inkscape:connector-curvature="0" />
  <path
     style="fill:#ec911d;fill-opacity:1;stroke:none"
     d="m 95.107688,119.46672 -23.53724,15.68612 c 0,0 17.62347,-2.06646 36.966362,2.06354 l 1.69275,-4.11096 0.33855,-0.80607 0.85443,0 17.28214,0 c -9.36937,-6.98751 -20.78045,-12.03848 -33.596992,-12.83263 z m 17.185412,15.41206 -1.20911,2.91797 c 18.40619,4.43326 37.73157,14.71825 44.49505,37.86916 0.36022,-10.86409 -8.57553,-28.21248 -23.61784,-40.78713 l -19.6681,0 z"
     id="path3990"
     inkscape:connector-curvature="0" />
  <path
     style="fill:#676bc6;fill-opacity:1;stroke:none"
     d="m 119.47131,117.75984 c 0,0 7.47489,5.45473 15.92794,14.5415 l 19.73259,0 c -2.15754,-3.56614 -4.72183,-6.96065 -7.73827,-10.10811 z m 18.26554,17.12092 c 6.47727,7.35564 13.16434,16.70121 17.28214,27.27741 0,0 1.96542,8.62422 1.51541,12.94548 -2.13437,20.49547 -19.68422,58.60127 -19.68422,58.60127 l 17.94311,0 c 0,0 9.90862,-36.67713 11.43007,-55.50596 0.48648,-6.02044 0.38296,-12.17296 -0.75771,-18.10433 -1.6825,-8.74885 -4.20249,-16.57473 -8.86676,-25.21387 z"
     id="path3992"
     inkscape:connector-curvature="0"
     sodipodi:nodetypes="cccccccaccaacc" />
  <g
     style="font-size:193.16117859px;font-style:italic;font-variant:normal;font-weight:bold;font-stretch:normal;line-height:125%;letter-spacing:1.55602193px;word-spacing:0px;fill:#002255;fill-opacity:1;stroke:none;font-family:Billboard;-inkscape-font-specification:Billboard Bold Italic"
     id="text4051"
     transform="matrix(0.51588468,0,0,0.51588468,383.1045,76.118283)">
    <path
       d="m -480.46524,270.11388 c -3.95898,13.90762 -10.93003,23.75883 -20.91314,29.55366 -9.8112,5.79483 -23.83936,8.69225 -42.08449,8.69225 -14.9749,0 -26.07693,-2.12477 -33.30614,-6.37432 -7.22925,-4.24954 -10.84387,-11.07456 -10.84384,-20.47508 -3e-5,-2.70423 0.1721,-5.21533 0.51637,-7.53329 0.34422,-2.3179 1.03273,-5.34409 2.0655,-9.07858 l 2.58186,-9.07857 43.63362,0 -4.90556,16.80502 c -0.86068,2.96184 -1.29099,5.53732 -1.29094,7.72645 -5e-5,3.0906 2.1515,4.63589 6.45468,4.63587 6.02429,2e-5 10.32741,-4.24952 12.90935,-12.74864 0.34418,-0.90139 0.60236,-1.99596 0.77456,-3.28374 0.17205,-1.41648 0.25811,-2.63983 0.25819,-3.67006 -8e-5,-7.21131 -7.74569,-14.55142 -23.23683,-22.02038 -15.31914,-7.5976 -22.97868,-16.93372 -22.97865,-28.00837 -3e-5,-3.86313 0.60241,-7.9839 1.80731,-12.36231 4.13095,-14.55136 11.87656,-24.91767 23.23684,-31.09895 9.63891,-5.2796 22.63431,-7.91947 38.98623,-7.91961 14.63049,1.4e-4 25.30222,1.6742 32.0152,5.02219 7.74547,3.86335 11.61828,10.43083 11.61841,19.70244 -1.3e-4,4.12088 -0.77469,9.01429 -2.32368,14.68025 l -1.54911,5.60167 -43.8918,0 3.09824,-10.4307 c 0.51628,-1.41641 0.86053,-2.70415 1.03274,-3.86322 0.17204,-1.28763 0.25809,-2.4466 0.2582,-3.47691 -1.1e-4,-2.44659 -1.80741,-3.66994 -5.42194,-3.67006 -5.85232,1.2e-4 -9.72512,3.5414 -11.61841,10.62387 -0.51645,2.18926 -0.77465,4.12087 -0.77457,5.79483 -8e-5,5.92371 7.74553,12.55557 23.23684,19.8956 15.4911,7.3402 23.23671,17.44896 23.23684,30.32631 -1.3e-4,4.76469 -0.86076,10.10881 -2.58188,16.03238"
       id="path4056"
       inkscape:connector-curvature="0" />
    <path
       d="m -349.02609,290.97528 c -2.4468,11.20336 -7.01827,19.44489 -13.71445,24.72463 -7.85528,6.18115 -19.57372,9.27172 -35.15533,9.27174 -10.04441,-2e-5 -17.57769,-1.41653 -22.59986,-4.24955 -5.79484,-3.21936 -8.69226,-8.49909 -8.69225,-15.83921 -1e-5,-2.06038 0.32193,-4.57148 0.9658,-7.53329 l 32.8374,0 c -0.25758,1.5453 -0.38636,2.57549 -0.38632,3.09058 -4e-5,2.96181 1.41648,4.44271 4.24955,4.44271 2.44666,0 4.24949,-0.70826 5.40851,-2.12477 1.15892,-1.41652 2.2535,-4.70025 3.28374,-9.85122 l 1.73845,-8.4991 c -6.56753,5.40853 -13.52132,8.11279 -20.86141,8.11277 -13.5213,2e-5 -20.28193,-6.05236 -20.28192,-18.15715 -1e-5,-3.21932 0.51508,-7.53325 1.54529,-12.9418 l 8.88541,-41.14333 c 2.31791,-10.68815 5.79481,-18.41459 10.43071,-23.17934 4.7646,-4.8933 11.07453,-7.34001 18.92979,-7.34012 8.37026,1.1e-4 14.6158,3.5414 18.73664,10.62386 l 4.24954,-8.49909 31.48527,0 -21.05456,99.09168 m -27.42889,-30.71262 8.11277,-38.24592 c 0.38625,-1.93152 0.70819,-3.60559 0.9658,-5.02219 0.25748,-1.41642 0.38626,-2.63978 0.38633,-3.67006 -7e-5,-2.31784 -1.15904,-3.47681 -3.4769,-3.4769 -1.93168,9e-5 -3.47697,0.83712 -4.63587,2.51109 -1.15903,1.54538 -2.25361,4.76473 -3.28374,9.65806 l -8.11277,38.24592 c -0.7727,3.73449 -1.15902,6.43874 -1.15897,8.11277 -5e-5,2.57551 1.15892,3.86325 3.4769,3.86322 2.06033,3e-5 3.60562,-0.77261 4.63587,-2.31794 1.03014,-1.54525 2.06033,-4.7646 3.09058,-9.65805"
       id="path4060"
       inkscape:connector-curvature="0" />
    <path
       d="m -256.31007,305.46237 -36.12114,0 3.4769,-24.91779 -12.55548,0 -7.34012,24.91779 -36.50747,0 47.51765,-138.68972 50.80139,0 -9.27173,138.68972 m -28.3947,-49.44926 6.95381,-58.14151 -19.12296,58.14151 12.16915,0"
       id="path4062"
       inkscape:connector-curvature="0" />
    <path
       d="m -171.66153,305.46237 -33.80321,0 17.57767,-82.47982 c 0.90135,-4.12069 1.35206,-7.27565 1.35213,-9.4649 -7e-5,-2.44661 -1.22343,-3.66997 -3.67007,-3.67006 -2.18922,9e-5 -3.86328,0.9659 -5.02219,2.89742 -1.03025,1.9317 -2.06044,5.34421 -3.09058,10.23754 l -17.57766,82.47982 -33.80321,0 24.14515,-113.57877 33.8032,0 -2.12477,10.4307 c 6.69619,-8.3702 14.61579,-12.55536 23.75883,-12.55547 5.40842,1.1e-4 9.52919,1.09469 12.36231,3.28374 3.73435,2.83314 5.60157,7.85532 5.60168,15.06657 -1.1e-4,3.60577 -0.57959,8.24163 -1.73845,13.9076 l -17.77083,83.44563"
       id="path4064"
       inkscape:connector-curvature="0" />
    <path
       d="m -105.61988,305.46237 -57.7552,0 5.0222,-23.75882 39.7912,-67.02693 -22.79302,0 4.82903,-22.79302 55.050934,0 -5.408513,25.11095 -38.825401,65.6748 24.9178,0 -4.82903,22.79302"
       id="path4066"
       inkscape:connector-curvature="0" />
  </g>
</svg>
